<svg xmlns="http://www.w3.org/2000/svg" viewBox="0 0 276.49 51.81"><defs><style>.cls-1{fill:none;}.cls-1,.cls-3{stroke:#78bbb8;}.cls-1,.cls-2,.cls-3,.cls-4{stroke-miterlimit:10;stroke-width:1.16px;}.cls-2{fill:#e0433e;stroke:#e0433e;}.cls-3,.cls-5{fill:#78bbb8;}.cls-4{fill:#f5c11d;stroke:#f5c11d;}.cls-5{font-size:34.75px;font-family:PalatinoLinotype-Italic, Palatino Linotype;font-style:italic;}</style></defs><title>资源 1</title><g id="图层_2" data-name="图层 2"><g id="图层_1-2" data-name="图层 1"><path class="cls-1" d="M27.13,16.41C24.34,6,11.13-1.63.71,1.16"/><path class="cls-1" d="M27.13,16.41C29.92,26.83,22.29,40,11.88,42.83"/><path class="cls-1" d="M27.41,24.33c2.79-10.42,16-18,26.42-15.25"/><path class="cls-2" d="M11.59,1.56A21,21,0,0,0,2.37,7.37h0L.71,1.16A19.9,19.9,0,0,1,11.59,1.56Z"/><path class="cls-3" d="M21.09,37.05a21,21,0,0,1-10.88-.43h0l1.67,6.21A19.81,19.81,0,0,0,21.09,37.05Z"/><path class="cls-4" d="M43,9.48a21,21,0,0,1,9.21,5.81h0l1.67-6.21A19.9,19.9,0,0,0,43,9.48Z"/><text class="cls-5" transform="translate(63.56 41.7)">Yue Zhuang</text></g></g></svg>