<svg xmlns="http://www.w3.org/2000/svg" viewBox="0 0 141.26 112.78"><defs><style>.cls-1{fill:none;}.cls-1,.cls-3{stroke:#78bbb8;}.cls-1,.cls-2,.cls-3,.cls-4{stroke-miterlimit:10;stroke-width:3px;}.cls-2{fill:#e0433e;stroke:#e0433e;}.cls-3{fill:#78bbb8;}.cls-4{fill:#f5c11d;stroke:#f5c11d;}</style></defs><title>资源 1</title><g id="图层_2" data-name="图层 2"><g id="图层_1-2" data-name="图层 1"><path class="cls-1" d="M70.27,42.51C63,15.53,28.82-4.23,1.84,3"/><path class="cls-1" d="M70.27,42.51c7.23,27-12.52,61.21-39.51,68.44"/><path class="cls-1" d="M71,63c7.23-27,41.44-46.74,68.43-39.51"/><path class="cls-2" d="M30,4.05C19.72,7.53,11.27,13,6.15,19.1h0L1.84,3C10.84.59,20.67,1.19,30,4.05Z"/><path class="cls-3" d="M54.63,96C44,98.09,33.92,97.55,26.45,94.85h0L30.76,111C39.76,108.53,48,103.1,54.63,96Z"/><path class="cls-4" d="M111.25,24.56c10.29,3.48,18.74,9,23.86,15h0l4.31-16.09C130.42,21.1,120.59,21.7,111.25,24.56Z"/></g></g></svg>