<?xml version="1.0" standalone="no"?>
<!DOCTYPE svg PUBLIC "-//W3C//DTD SVG 20010904//EN"
 "http://www.w3.org/TR/2001/REC-SVG-20010904/DTD/svg10.dtd">
<svg version="1.0" xmlns="http://www.w3.org/2000/svg"
 width="1128.000000pt" height="1128.000000pt" viewBox="0 0 1128.000000 1128.000000"
 preserveAspectRatio="xMidYMid meet">
<metadata>
Created by potrace 1.11, written by Peter Selinger 2001-2013
</metadata>
<g transform="translate(0.000000,1128.000000) scale(0.100000,-0.100000)"
fill="#000000" stroke="none">
<path d="M839 10136 c-2 -2 -42 -6 -89 -10 -47 -4 -101 -9 -120 -12 -19 -2
-53 -7 -75 -9 -63 -7 -119 -15 -135 -20 -8 -3 -33 -7 -55 -10 -22 -4 -58 -11
-79 -17 -22 -5 -51 -11 -65 -13 -14 -2 -26 -4 -26 -5 0 -1 -7 -3 -15 -5 -27
-7 -175 -48 -177 -50 -3 -1 15 -73 24 -95 3 -8 7 -22 8 -30 3 -19 16 -68 55
-210 17 -63 35 -131 40 -150 5 -19 14 -53 20 -75 15 -56 22 -88 23 -102 0 -7
3 -13 7 -13 4 0 10 -17 13 -37 4 -21 16 -72 28 -113 11 -41 29 -106 39 -145
10 -38 26 -97 35 -130 9 -33 18 -67 20 -75 9 -35 47 -179 60 -224 8 -27 12
-52 9 -57 -3 -5 0 -9 7 -9 7 0 9 -3 6 -7 -4 -3 -2 -12 4 -20 6 -7 9 -13 6 -13
-3 0 -1 -15 4 -32 6 -18 12 -41 14 -52 7 -30 14 -31 31 -8 9 13 25 33 37 45
12 13 42 47 67 77 79 98 204 227 301 314 75 67 250 207 293 235 23 14 48 32
56 39 25 21 296 192 304 192 3 0 20 10 38 23 116 78 705 342 811 362 9 2 21 7
27 10 10 6 165 -44 290 -93 120 -47 247 -100 267 -111 10 -5 77 -37 148 -72
214 -102 652 -360 663 -390 2 -5 9 -9 15 -9 7 0 23 -9 37 -20 14 -11 68 -52
120 -91 52 -40 97 -76 98 -80 2 -5 8 -9 14 -9 5 0 15 -6 22 -12 8 -7 35 -31
62 -53 27 -22 64 -55 82 -72 19 -18 36 -33 39 -33 11 0 240 -224 334 -328 115
-124 134 -147 227 -263 50 -64 92 -122 92 -128 0 -6 4 -11 8 -11 10 0 192
-273 192 -288 0 -7 4 -12 8 -12 4 0 23 -30 42 -67 19 -38 38 -70 41 -73 6 -5
103 -203 139 -284 71 -159 158 -415 177 -521 3 -16 9 -38 14 -47 5 -9 8 -21 7
-25 -1 -4 3 -30 10 -58 14 -60 23 -115 37 -210 13 -98 15 -111 22 -180 10 -96
10 -572 0 -670 -13 -135 -16 -158 -23 -210 -7 -50 -8 -58 -19 -125 -10 -65
-77 -385 -81 -392 -5 -7 -42 -146 -49 -180 -2 -9 -9 -26 -15 -37 -6 -12 -8
-21 -5 -21 2 0 -5 -24 -16 -52 -12 -29 -22 -57 -23 -63 -4 -18 -17 -60 -26
-80 -4 -11 -23 -58 -40 -105 -18 -47 -40 -103 -50 -125 -10 -22 -30 -69 -45
-105 -91 -218 -313 -619 -452 -815 -115 -164 -224 -309 -235 -313 -4 -2 -8
-10 -8 -17 0 -7 -4 -15 -8 -17 -5 -1 -50 -51 -100 -110 -97 -114 -104 -120
-136 -124 -12 -2 -32 -6 -46 -9 -14 -3 -38 -8 -55 -10 -16 -2 -48 -6 -70 -9
-198 -29 -272 -36 -480 -52 -244 -18 -643 0 -903 41 -23 4 -52 8 -65 10 -12 2
-33 6 -47 9 -14 3 -50 11 -80 17 -30 6 -80 18 -110 26 -30 8 -65 16 -76 18
-12 2 -30 7 -40 13 -11 6 -23 10 -29 11 -14 1 -138 42 -150 50 -5 3 -17 6 -25
8 -8 1 -23 6 -35 12 -29 14 -109 40 -113 36 -2 -2 4 -30 13 -62 9 -32 19 -68
21 -80 2 -12 9 -34 14 -49 6 -14 8 -30 4 -35 -3 -5 -1 -9 4 -9 5 0 9 -6 9 -12
0 -7 12 -58 28 -113 15 -55 29 -107 31 -115 3 -15 51 -195 80 -300 8 -30 17
-62 19 -70 1 -8 11 -42 20 -75 9 -33 20 -76 25 -95 4 -19 20 -78 34 -130 31
-112 35 -125 40 -147 8 -36 48 -188 54 -203 3 -8 6 -21 8 -29 1 -8 6 -26 10
-40 4 -14 7 -30 6 -34 -5 -20 35 -15 149 17 229 64 444 148 659 255 137 69
181 92 190 101 3 3 22 14 44 25 79 40 432 279 492 332 10 10 46 40 78 66 179
145 307 266 496 467 63 68 131 140 150 160 59 62 86 94 72 86 -17 -10 -15 -3
6 22 34 41 48 58 95 122 26 36 54 72 60 80 31 38 127 181 127 189 0 5 4 11 9
13 10 4 141 215 141 227 0 5 4 11 8 13 8 3 53 82 106 183 12 22 25 43 29 46 5
3 8 9 8 13 -1 3 13 34 31 69 18 34 33 64 33 67 1 3 13 29 28 59 15 30 27 60
27 66 0 6 5 16 12 23 6 6 17 26 24 44 12 32 102 261 119 303 5 11 9 22 10 25
0 3 9 30 20 60 11 30 20 57 20 60 1 3 5 12 8 20 8 19 51 167 82 280 22 81 60
247 69 300 3 14 5 25 6 25 1 0 3 11 5 25 4 33 14 91 21 112 3 9 6 25 8 35 6
25 74 234 86 258 5 11 25 58 44 105 19 47 41 99 50 115 9 17 16 36 16 43 0 6
5 12 10 12 6 0 10 7 10 15 0 17 20 56 33 66 5 3 8 9 8 13 -1 12 43 96 51 96 4
0 8 8 8 19 0 10 7 24 15 31 8 7 15 16 15 21 0 17 193 312 227 347 7 7 13 16
13 20 0 4 14 23 30 42 16 19 33 40 37 45 5 6 24 30 43 55 19 25 44 56 56 70
12 14 42 47 66 74 45 52 161 178 189 205 85 86 261 246 329 301 24 19 57 47
74 61 17 14 69 54 116 90 47 35 87 66 90 69 3 3 61 43 130 88 69 45 130 86
135 90 12 10 165 101 220 133 164 92 481 243 665 315 19 7 49 19 65 25 17 7
33 13 38 14 4 2 9 4 12 5 3 1 8 3 13 4 4 1 46 15 94 31 l88 29 52 -18 c85 -30
280 -106 323 -126 22 -10 83 -39 136 -64 53 -25 102 -46 108 -46 6 0 11 -4 11
-10 0 -5 8 -10 18 -10 10 0 22 -4 28 -9 5 -4 38 -24 74 -43 61 -34 175 -97
230 -129 14 -8 27 -16 30 -19 3 -3 30 -21 60 -40 30 -19 58 -39 62 -45 5 -6 8
-6 8 0 0 6 3 6 8 -1 4 -5 39 -32 77 -59 39 -27 82 -58 96 -69 14 -12 38 -30
53 -41 15 -11 38 -29 51 -40 12 -11 47 -40 76 -65 75 -63 255 -242 320 -319
30 -36 61 -72 69 -81 8 -8 28 -31 43 -49 15 -18 30 -31 33 -29 2 3 11 29 19
59 7 30 28 106 45 169 17 63 33 122 35 130 2 8 4 15 5 15 1 0 3 9 5 20 2 11
16 68 33 127 16 59 27 110 24 113 -3 3 0 5 7 5 7 0 9 5 6 10 -4 6 -1 17 5 25
7 8 10 15 7 15 -3 0 0 21 8 48 26 89 117 427 120 447 2 11 4 22 6 25 1 3 3 10
4 15 1 6 4 17 7 25 7 17 37 132 43 158 2 9 8 29 14 45 6 15 9 27 7 27 -2 0 5
28 15 62 19 59 19 62 2 72 -10 6 -25 11 -33 12 -8 1 -46 10 -85 22 -78 22
-118 32 -156 37 -15 1 -35 5 -45 9 -11 3 -35 8 -54 11 -19 3 -60 10 -90 15
-332 54 -827 58 -1155 10 -33 -5 -82 -12 -110 -15 -54 -7 -76 -11 -115 -20
-14 -3 -38 -7 -55 -10 -30 -4 -55 -9 -110 -22 -16 -4 -32 -7 -35 -8 -8 -2 -94
-19 -100 -20 -3 0 -9 -3 -15 -7 -5 -3 -27 -9 -49 -12 -21 -4 -42 -9 -47 -12
-5 -3 -18 -7 -29 -9 -12 -2 -65 -18 -118 -34 -53 -17 -99 -30 -102 -30 -3 0
-27 -8 -55 -19 -27 -11 -53 -20 -58 -21 -26 -2 -142 -43 -148 -52 -3 -6 -12
-11 -20 -13 -8 -1 -31 -10 -53 -19 -21 -9 -40 -17 -43 -17 -2 0 -30 -12 -61
-26 -178 -80 -219 -99 -233 -111 -9 -7 -19 -10 -22 -7 -4 4 -13 2 -21 -5 -8
-6 -49 -30 -92 -52 -108 -56 -195 -105 -287 -161 -43 -26 -83 -48 -88 -48 -5
0 -9 -4 -9 -10 0 -5 -7 -10 -15 -10 -8 0 -15 -4 -15 -10 0 -5 -7 -10 -15 -10
-8 0 -15 -4 -15 -10 0 -5 -5 -10 -10 -10 -12 0 -73 -41 -78 -52 -2 -5 -8 -8
-12 -8 -11 0 -204 -139 -302 -217 -202 -161 -441 -380 -583 -537 -100 -109
-255 -296 -310 -372 -11 -15 -32 -43 -47 -62 -16 -19 -28 -38 -28 -41 0 -4 -8
-16 -18 -27 -25 -27 -142 -212 -142 -224 0 -6 -4 -10 -10 -10 -5 0 -10 -6 -10
-14 0 -8 -3 -16 -7 -18 -8 -3 -19 -22 -71 -121 -14 -26 -26 -46 -28 -44 -2 2
-6 48 -8 102 -3 55 -8 116 -10 135 -2 19 -7 64 -11 100 -3 36 -8 76 -10 90
-10 59 -13 78 -20 130 -4 30 -9 58 -11 61 -2 4 -6 24 -10 45 -3 22 -14 72 -25
112 -10 40 -21 82 -23 95 -3 12 -5 22 -6 22 -1 0 -3 7 -5 16 -4 23 -64 209
-74 234 -5 11 -28 70 -52 130 -24 61 -60 145 -81 188 -21 43 -38 81 -38 85 0
4 -11 24 -25 45 -14 20 -23 37 -21 37 3 0 -14 34 -39 75 -24 41 -41 75 -37 75
4 0 2 4 -3 8 -6 4 -40 55 -77 114 -81 128 -168 254 -200 288 -13 13 -21 25
-18 25 3 0 -1 7 -7 15 -13 16 -112 138 -126 155 -4 6 -21 26 -38 45 -17 19
-50 57 -72 83 -140 162 -458 459 -647 603 -36 27 -67 51 -70 54 -3 3 -21 17
-40 30 -19 13 -40 29 -47 35 -18 15 -37 29 -55 40 -9 6 -75 49 -147 98 -71 48
-135 87 -141 87 -5 0 -10 4 -10 9 0 5 -8 11 -17 14 -10 4 -36 17 -58 31 -55
34 -296 164 -375 203 -132 63 -217 103 -223 103 -4 0 -35 13 -69 29 -64 29
-105 44 -123 46 -5 0 -9 6 -8 11 1 8 -114 49 -169 60 -5 1 -9 2 -10 4 -2 1
-10 3 -18 5 -8 3 -67 21 -130 41 -63 20 -140 42 -170 51 -103 27 -214 54 -239
58 -14 2 -55 10 -91 18 -36 9 -83 18 -105 21 -22 2 -47 7 -55 10 -8 2 -37 7
-65 10 -27 4 -68 9 -90 12 -22 3 -47 6 -55 6 -8 0 -22 2 -30 5 -8 3 -35 7 -60
8 -75 6 -646 16 -651 11z"/>
</g>
</svg>
